<svg width="132" height="134" viewBox="0 0 132 134" fill="none" xmlns="http://www.w3.org/2000/svg">
<path d="M131 66C131 103.967 101.88 133 66 133C30.1397 133 1 101.938 1 66C1 30.1015 30.1015 1 66 1C101.899 1 131 30.1015 131 66Z" stroke="#FF001E" stroke-width="2"/>
<path d="M121 66C121 104.128 96.2109 133 66 133C35.8064 133 11 102.1 11 66C11 29.9411 35.7721 1 66 1C96.2279 1 121 29.9411 121 66Z" stroke="#FF001E" stroke-width="2"/>
<path d="M102 66C102 85.1195 97.8847 101.946 91.2865 113.956C84.6716 125.996 75.6906 133 66 133C56.2898 133 46.0536 125.462 38.1799 113.131C30.3385 100.851 25 84.0378 25 66C25 47.9643 30.3372 31.6583 38.1696 19.8848C46.0282 8.07219 56.2626 1 66 1C75.6938 1 84.6754 8.01972 91.2907 19.82C97.888 31.5882 102 47.9133 102 66Z" stroke="#FF001E" stroke-width="2"/>
<path d="M84 66C84 85.1838 81.7523 102.082 78.1433 114.151C76.3369 120.192 74.2061 124.966 71.8866 128.207C69.5512 131.471 67.1634 133 64.8608 133C62.5709 133 60.0743 131.361 57.5608 127.912C55.0751 124.501 52.7299 119.527 50.7097 113.358C46.6731 101.031 44 84.1383 44 66C44 47.8618 46.6731 31.4741 50.7058 19.6539C52.724 13.7384 55.0657 9.01757 57.5451 5.79658C60.0452 2.54871 62.5434 1 64.8608 1C67.1644 1 69.5526 2.53323 71.8889 5.77168C74.2085 8.98692 76.3388 13.704 78.1449 19.6228C81.7533 31.4481 84 47.8452 84 66Z" stroke="#FF001E" stroke-width="2"/>
<path d="M64 1.5C65.4413 10.1481 64.3915 30.9686 64.729 62.5C64.9378 82.0134 64.729 105.5 66 133M41 6C48.1667 12.5 68.4 21.6 92 6" stroke="#FF001E" stroke-width="2"/>
<path d="M19 21.5C31.6667 31.1667 68.6 44.9 115 22.5" stroke="#FF001E" stroke-width="2"/>
<path d="M7.5 37C23.3333 50.1667 69.1 68.9 125.5 38.5" stroke="#FF001E" stroke-width="2"/>
<path d="M1.5 58C21.5 68.8333 75.3 84 130.5 58" stroke="#FF001E" stroke-width="2"/>
<path d="M1 72C19.1667 84.5 70.5 102.4 130.5 74" stroke="#FF001E" stroke-width="2"/>
<path d="M6 91.5C23.3333 102 71.6 116.7 126 91.5" stroke="#FF001E" stroke-width="2"/>
<path d="M17.5 110.5C31 117.167 69.4 126.5 115 110.5" stroke="#FF001E" stroke-width="2"/>
</svg>
