<svg width="52" height="52" viewBox="0 0 52 52" fill="none" xmlns="http://www.w3.org/2000/svg">
<path d="M20.6429 1V8.14286L17.0714 9.92857L11.7143 4.57143L4.57143 11.7143L9.92857 17.0714L8.14286 20.6429H1V31.3571H8.14286L9.92857 34.9286L4.57143 40.2857L11.7143 47.4286L17.0714 42.0714L20.6429 43.8571V51H31.3571V43.8571L34.9286 42.0714L40.2857 47.4286L47.4286 40.2857L42.0714 34.9286L43.8571 31.3571H51V20.6429H43.8571L42.0714 17.0714L47.4286 11.7143L40.2857 4.57143L34.9286 9.92857L31.3571 8.14286V1H20.6429Z" stroke="#FF001E" stroke-width="2" stroke-linecap="round" stroke-linejoin="round"/>
<path d="M26 33.1429C29.9449 33.1429 33.1429 29.945 33.1429 26.0001C33.1429 22.0552 29.9449 18.8572 26 18.8572C22.0551 18.8572 18.8572 22.0552 18.8572 26.0001C18.8572 29.945 22.0551 33.1429 26 33.1429Z" stroke="#FF001E" stroke-width="2" stroke-linecap="round" stroke-linejoin="round"/>
</svg>
