<svg width="50" height="50" viewBox="0 0 50 50" fill="none" xmlns="http://www.w3.org/2000/svg">
<path d="M29.6451 5.64517C29.6451 8.21064 27.5654 10.2903 25 10.2903C22.4346 10.2903 20.3549 8.21064 20.3549 5.64517C20.3549 3.07971 22.4346 1 25 1C27.5654 1 29.6451 3.07971 29.6451 5.64517Z" stroke="#FF0202" stroke-width="2"/>
<circle cx="44.3549" cy="44.3549" r="4.64517" stroke="#FF0202" stroke-width="2"/>
<path d="M29.6451 44.3549C29.6451 46.9204 27.5654 49.0001 25 49.0001C22.4346 49.0001 20.3549 46.9204 20.3549 44.3549C20.3549 41.7894 22.4346 39.7097 25 39.7097C27.5654 39.7097 29.6451 41.7894 29.6451 44.3549Z" stroke="#FF0202" stroke-width="2"/>
<path d="M10.2904 44.3549C10.2904 46.9203 8.21068 49.0001 5.6452 49.0001C3.07972 49.0001 1 46.9203 1 44.3549C1 41.7894 3.07972 39.7097 5.6452 39.7097C8.21068 39.7097 10.2904 41.7894 10.2904 44.3549Z" stroke="#FF0202" stroke-width="2"/>
<path d="M25 10.4839V21.7742M25 39.5161V21.7742M25 21.7742H44.3549M44.3549 21.7742V39.5161M44.3549 21.7742H5.64514V39.5161" stroke="#FF001E" stroke-width="2"/>
</svg>
